<mxfile host="app.diagrams.net" modified="2023-04-11T23:47:38.310Z" agent="Mozilla/5.0 (Windows NT 10.0; Win64; x64) AppleWebKit/537.36 (KHTML, like Gecko) Chrome/111.0.0.0 Safari/537.36" etag="uwtFa2B34Qvtell76WQl" version="21.1.6" type="device">
  <diagram name="Página-1" id="hUpUNt3Eqm8oGQhXvpIT">
    <mxGraphModel dx="1349" dy="814" grid="1" gridSize="10" guides="1" tooltips="1" connect="1" arrows="1" fold="1" page="1" pageScale="1" pageWidth="827" pageHeight="1169" math="0" shadow="0">
      <root>
        <mxCell id="0" />
        <mxCell id="1" parent="0" />
        <mxCell id="N3vmwovU2soCxSiexNPQ-17" value="" style="rounded=0;whiteSpace=wrap;html=1;fillColor=#292C3E;" vertex="1" parent="1">
          <mxGeometry x="4" width="820" height="580" as="geometry" />
        </mxCell>
        <mxCell id="N3vmwovU2soCxSiexNPQ-2" value="&lt;h1 style=&quot;font-size: 40px;&quot;&gt;Cronómetro&lt;/h1&gt;" style="text;html=1;strokeColor=none;fillColor=none;spacing=5;spacingTop=-20;whiteSpace=wrap;overflow=hidden;rounded=0;align=center;fontStyle=1;fontColor=#FFFFFF;fontSize=40;fontFamily=Helvetica;" vertex="1" parent="1">
          <mxGeometry x="280.5" y="150" width="266" height="80" as="geometry" />
        </mxCell>
        <mxCell id="N3vmwovU2soCxSiexNPQ-4" value="&lt;h1 style=&quot;font-size: 40px;&quot;&gt;12&lt;/h1&gt;" style="text;html=1;strokeColor=none;fillColor=none;spacing=5;spacingTop=-20;whiteSpace=wrap;overflow=hidden;rounded=0;align=center;fontStyle=1;fontColor=#FFFFFF;fontSize=40;fontFamily=Helvetica;" vertex="1" parent="1">
          <mxGeometry x="360" y="260" width="79" height="80" as="geometry" />
        </mxCell>
        <mxCell id="N3vmwovU2soCxSiexNPQ-5" value="&lt;h1 style=&quot;font-size: 30px;&quot;&gt;56&lt;/h1&gt;" style="text;html=1;strokeColor=none;fillColor=none;spacing=5;spacingTop=-20;whiteSpace=wrap;overflow=hidden;rounded=0;align=center;fontStyle=1;fontColor=#FFFFFF;fontSize=30;fontFamily=Helvetica;" vertex="1" parent="1">
          <mxGeometry x="419" y="275" width="50" height="50" as="geometry" />
        </mxCell>
        <mxCell id="N3vmwovU2soCxSiexNPQ-6" value="" style="ellipse;whiteSpace=wrap;html=1;aspect=fixed;fillColor=none;strokeColor=#F14853;" vertex="1" parent="1">
          <mxGeometry x="344.5" y="230" width="140" height="140" as="geometry" />
        </mxCell>
        <mxCell id="N3vmwovU2soCxSiexNPQ-10" value="" style="group" vertex="1" connectable="0" parent="1">
          <mxGeometry x="269.5" y="400" width="90" height="30" as="geometry" />
        </mxCell>
        <mxCell id="N3vmwovU2soCxSiexNPQ-7" value="" style="rounded=0;whiteSpace=wrap;html=1;fillColor=#F14853;strokeColor=none;" vertex="1" parent="N3vmwovU2soCxSiexNPQ-10">
          <mxGeometry width="89" height="30" as="geometry" />
        </mxCell>
        <mxCell id="N3vmwovU2soCxSiexNPQ-8" value="&lt;h1 style=&quot;font-size: 20px;&quot;&gt;&lt;font color=&quot;#ffffff&quot; style=&quot;font-size: 20px;&quot;&gt;Iniciar&lt;/font&gt;&lt;/h1&gt;" style="text;html=1;strokeColor=none;fillColor=none;spacing=5;spacingTop=-20;whiteSpace=wrap;overflow=hidden;rounded=0;align=center;fontSize=20;" vertex="1" parent="N3vmwovU2soCxSiexNPQ-10">
          <mxGeometry width="90" height="30" as="geometry" />
        </mxCell>
        <mxCell id="N3vmwovU2soCxSiexNPQ-11" value="" style="group" vertex="1" connectable="0" parent="1">
          <mxGeometry x="368.5" y="400" width="90" height="30" as="geometry" />
        </mxCell>
        <mxCell id="N3vmwovU2soCxSiexNPQ-12" value="" style="rounded=0;whiteSpace=wrap;html=1;fillColor=#F14853;strokeColor=none;" vertex="1" parent="N3vmwovU2soCxSiexNPQ-11">
          <mxGeometry width="89" height="30" as="geometry" />
        </mxCell>
        <mxCell id="N3vmwovU2soCxSiexNPQ-13" value="&lt;h1 style=&quot;font-size: 20px;&quot;&gt;&lt;font color=&quot;#ffffff&quot; style=&quot;font-size: 20px;&quot;&gt;Detener&lt;/font&gt;&lt;/h1&gt;" style="text;html=1;strokeColor=none;fillColor=none;spacing=5;spacingTop=-20;whiteSpace=wrap;overflow=hidden;rounded=0;align=center;fontSize=20;" vertex="1" parent="N3vmwovU2soCxSiexNPQ-11">
          <mxGeometry width="90" height="30" as="geometry" />
        </mxCell>
        <mxCell id="N3vmwovU2soCxSiexNPQ-14" value="" style="group" vertex="1" connectable="0" parent="1">
          <mxGeometry x="468.5" y="400" width="90" height="30" as="geometry" />
        </mxCell>
        <mxCell id="N3vmwovU2soCxSiexNPQ-15" value="" style="rounded=0;whiteSpace=wrap;html=1;fillColor=#F14853;strokeColor=none;" vertex="1" parent="N3vmwovU2soCxSiexNPQ-14">
          <mxGeometry width="89" height="30" as="geometry" />
        </mxCell>
        <mxCell id="N3vmwovU2soCxSiexNPQ-16" value="&lt;h1 style=&quot;font-size: 20px;&quot;&gt;&lt;font color=&quot;#ffffff&quot; style=&quot;font-size: 20px;&quot;&gt;Reiniciar&lt;/font&gt;&lt;/h1&gt;" style="text;html=1;strokeColor=none;fillColor=none;spacing=5;spacingTop=-20;whiteSpace=wrap;overflow=hidden;rounded=0;align=center;fontSize=20;" vertex="1" parent="N3vmwovU2soCxSiexNPQ-14">
          <mxGeometry width="90" height="30" as="geometry" />
        </mxCell>
      </root>
    </mxGraphModel>
  </diagram>
</mxfile>
